<?xml version="1.0" encoding="utf-8"?>
<!-- Generator: Adobe Illustrator 16.0.0, SVG Export Plug-In . SVG Version: 6.00 Build 0)  -->
<!DOCTYPE svg PUBLIC "-//W3C//DTD SVG 1.1//EN" "http://www.w3.org/Graphics/SVG/1.1/DTD/svg11.dtd">
<svg version="1.1" id="Layer_1" xmlns="http://www.w3.org/2000/svg" xmlns:xlink="http://www.w3.org/1999/xlink" x="0px" y="0px"
	 width="576px" height="576px" viewBox="0 0 576 576" enable-background="new 0 0 576 576" xml:space="preserve">
<polygon fill="none" stroke="#000000" stroke-miterlimit="10" points="477.582,324.845 299.046,457.636 117.583,328.871 
	183.97,116.5 406.462,114.011 "/>
<g>
	<defs>
		<rect id="SVGID_1_" width="576" height="576"/>
	</defs>
	<clipPath id="SVGID_2_">
		<use xlink:href="#SVGID_1_"  overflow="visible"/>
	</clipPath>
	<path clip-path="url(#SVGID_2_)" fill="#E6E7E8" d="M477.582,269.128c0,99.411-80.589,180-180,180c-99.411,0-180-80.589-180-180
		c0-99.412,80.589-180,180-180C396.993,89.128,477.582,169.716,477.582,269.128"/>
	<path clip-path="url(#SVGID_2_)" fill="#939598" d="M158.938,84.76c-29.349,20.073-34.651,63.377-11.845,96.723
		c4.276,6.251,9.237,11.709,14.668,16.319c17.111,14.521,40.596,23.755,44.887,17.797c1.593-2.21,0.599-6.591-1.082-9.198
		c-2.328-3.614-5.741-3.459-10.617-6.816c-0.001,0-4.06-2.795-8.901-9.903c-6.631-9.736-11.51-37.613,11.052-53.045
		c22.563-15.431,46.773-0.776,53.442,8.934c4.87,7.088,6.002,11.885,6.002,11.885c1.36,5.762-0.021,8.886,2.502,12.367
		c1.821,2.511,5.543,5.026,8.181,4.343c7.108-1.839,7.019-27.074-0.311-48.286c-2.327-6.733-5.615-13.335-9.891-19.586
		c-22.807-33.346-65.087-44.105-94.435-24.032L158.938,84.76z"/>
	<path clip-path="url(#SVGID_2_)" fill="#6D6E71" d="M193.042,130.703c-19.12,13.078-45.221,8.179-58.298-10.941
		c-13.077-19.12-8.179-45.221,10.941-58.298c19.12-13.077,45.221-8.179,58.298,10.941
		C217.061,91.524,212.162,117.625,193.042,130.703"/>
	<path clip-path="url(#SVGID_2_)" fill="#939598" d="M427.777,91.652c-29.019-20.547-71.468-10.477-94.812,22.494
		c-4.377,6.181-7.772,12.728-10.208,19.423c-7.673,21.09-8.173,46.32-1.096,48.275c2.626,0.725,6.389-1.73,8.25-4.211
		c2.58-3.439,1.249-6.585,2.703-12.324c0,0,1.21-4.778,6.193-11.786c6.826-9.6,31.272-23.86,53.581-8.064
		c22.309,15.797,16.977,43.59,10.188,53.217c-4.955,7.029-9.061,9.757-9.061,9.757c-4.93,3.277-8.34,3.067-10.727,6.642
		c-1.723,2.58-2.788,6.945-1.232,9.181c4.195,6.026,27.826-2.824,45.171-17.067c5.506-4.52,10.555-9.897,14.932-16.078
		c23.346-32.97,18.747-76.355-10.271-96.902L427.777,91.652z"/>
	<path clip-path="url(#SVGID_2_)" fill="#6D6E71" d="M396.543,139.592c-18.905-13.386-23.378-39.563-9.992-58.468
		c13.386-18.905,39.563-23.379,58.468-9.992c18.905,13.386,23.378,39.563,9.992,58.468
		C441.625,148.505,415.448,152.978,396.543,139.592"/>
	<path clip-path="url(#SVGID_2_)" fill="#FFFFFF" d="M420.602,313.916l-41.773,2.265c-3.159,0.172-5.857-2.25-6.029-5.408
		l-3.479-64.177c-0.172-3.158,2.25-5.857,5.408-6.028l41.772-2.265c3.159-0.172,5.857,2.25,6.029,5.408l3.479,64.178
		C426.181,311.046,423.759,313.745,420.602,313.916"/>
	<path clip-path="url(#SVGID_2_)" fill="#939598" d="M511.701,358.804c17.645-30.869,3.516-72.146-31.558-92.193
		c-6.575-3.759-13.42-6.504-20.318-8.281c-21.734-5.598-46.894-3.656-48.155,3.578c-0.469,2.684,2.339,6.191,4.988,7.804
		c3.672,2.235,6.676,0.606,12.528,1.498c0,0,4.872,0.742,12.33,5.025c10.215,5.866,26.771,28.818,13.207,52.549
		s-41.744,21.112-51.982,15.288c-7.475-4.253-10.587-8.074-10.587-8.075c-3.739-4.59-3.859-8.004-7.649-10.034
		c-2.733-1.465-7.181-2.104-9.256-0.338c-5.592,4.758,5.502,27.423,21.355,43.309c5.031,5.043,10.871,9.548,17.446,13.306
		c35.073,20.048,77.811,11.275,95.454-19.594L511.701,358.804z"/>
	<path clip-path="url(#SVGID_2_)" fill="#6D6E71" d="M460.966,332.353c11.495-20.111,37.117-27.096,57.228-15.601
		s27.096,37.117,15.601,57.228c-11.495,20.111-37.118,27.096-57.229,15.601S449.47,352.463,460.966,332.353"/>
	<path clip-path="url(#SVGID_2_)" fill="#939598" d="M302.243,495.269c35.532,1.3,65.535-30.374,67.011-70.746
		c0.278-7.569-0.468-14.906-2.096-21.841c-5.13-21.85-18.529-43.233-25.521-40.992c-2.595,0.831-4.398,4.945-4.598,8.041
		c-0.274,4.29,2.562,6.194,4.489,11.792c0,0,1.603,4.66,1.271,13.254c-0.454,11.771-13.099,37.089-40.415,36.09
		c-27.315-0.999-38.077-27.174-37.669-38.946c0.298-8.595,2.237-13.126,2.237-13.126c2.331-5.441,5.299-7.134,5.338-11.433
		c0.029-3.102-1.47-7.337-3.997-8.355c-6.81-2.745-21.736,17.603-28.448,39.018c-2.131,6.798-3.41,14.062-3.687,21.63
		c-1.477,40.372,26.13,74.153,61.663,75.453L302.243,495.269z"/>
	<path clip-path="url(#SVGID_2_)" fill="#6D6E71" d="M302.123,438.052c23.147,0.847,41.228,20.299,40.381,43.447
		c-0.848,23.149-20.299,41.229-43.448,40.382c-23.149-0.847-41.228-20.3-40.381-43.448
		C259.521,455.284,278.974,437.204,302.123,438.052"/>
	<path clip-path="url(#SVGID_2_)" fill="#939598" d="M75.263,352.507c12.296,33.362,52.994,49.083,90.9,35.112
		c7.106-2.619,13.61-6.097,19.407-10.237c18.262-13.045,32.952-33.563,28.224-39.181c-1.755-2.084-6.246-2.189-9.185-1.197
		c-4.073,1.375-4.757,4.723-9.203,8.631c0,0-3.702,3.254-11.777,6.212c-11.061,4.052-39.285,1.975-48.738-23.674
		s10.672-45.546,21.717-49.642c8.063-2.99,12.991-2.916,12.991-2.916c5.919,0.088,8.612,2.191,12.603,0.594
		c2.88-1.152,6.228-4.147,6.211-6.871c-0.047-7.343-24.54-13.42-46.9-11.493c-7.097,0.611-14.302,2.187-21.409,4.806
		c-37.906,13.971-58.667,52.342-46.371,85.705L75.263,352.507z"/>
	<path clip-path="url(#SVGID_2_)" fill="#6D6E71" d="M128.145,330.659c8.011,21.734-3.115,45.849-24.85,53.859
		s-45.849-3.115-53.859-24.851c-8.011-21.734,3.115-45.849,24.85-53.859C96.02,297.798,120.133,308.924,128.145,330.659"/>
	<path clip-path="url(#SVGID_2_)" fill="#FFFFFF" d="M249.608,320.491l-36.23-20.918c-2.739-1.581-3.678-5.084-2.096-7.822
		l32.136-55.662c1.581-2.739,5.084-3.677,7.822-2.096l36.23,20.917c2.74,1.582,3.678,5.084,2.096,7.823l-32.135,55.661
		C255.85,321.134,252.347,322.072,249.608,320.491"/>
	<path clip-path="url(#SVGID_2_)" fill="#414042" d="M446.593,66.163c3.245,0.693,5.987,4.269,10.281,9.868
		c3.841,5.009,5.806,9.523,6.675,11.742c1.678,4.286,2.646,8.617,2.961,12.87c0.783,10.589-2.516,30.913-13.265,32.92
		c-10.545,1.969-26.367-14.037-29.175-30.106C420.555,83.335,437.646,64.253,446.593,66.163"/>
	<path clip-path="url(#SVGID_2_)" fill="#414042" d="M451.068,69.363c-1.708-2.849-5.977-4.286-12.658-6.535
		c-5.979-2.012-10.879-2.409-13.258-2.511c-4.594-0.199-8.998,0.29-13.118,1.372c-10.256,2.695-28.384,12.415-26.791,23.247
		c1.562,10.627,21.816,20.419,37.907,17.863C443.297,99.597,455.774,77.217,451.068,69.363"/>
	<path clip-path="url(#SVGID_2_)" fill="#414042" d="M485.723,385.907c-6.769-17.622,0.925-42.841,17.181-56.328
		c16.257-13.488,34.922-10.137,41.688,7.484c6.769,17.621-0.925,42.84-17.182,56.327
		C511.154,406.879,492.49,403.528,485.723,385.907"/>
	<path clip-path="url(#SVGID_2_)" fill="#414042" d="M46.422,366.173c-2.422-2.269-2.924-6.748-3.711-13.76
		c-0.704-6.272-0.057-11.152,0.345-13.502c0.775-4.536,2.182-8.745,4.109-12.551c4.795-9.473,18.112-25.176,28.354-21.347
		c10.048,3.758,15.336,25.634,9.445,40.847C77.587,364.906,53.098,372.427,46.422,366.173"/>
	<path clip-path="url(#SVGID_2_)" fill="#414042" d="M44.241,361.121c-0.008,3.322,2.906,6.756,7.468,12.132
		c4.08,4.81,8.074,7.679,10.058,8.995c3.831,2.541,7.856,4.396,11.943,5.596c10.175,2.987,30.718,4.021,34.946-6.079
		c4.148-9.907-8.144-28.749-23.244-34.866C66.505,339.239,44.264,351.965,44.241,361.121"/>
	<path clip-path="url(#SVGID_2_)" fill="#414042" d="M57.513,364.672c0,8.608-6.979,15.587-15.586,15.587
		c-8.609,0-15.587-6.979-15.587-15.587c0-8.607,6.978-15.586,15.587-15.586C50.534,349.086,57.513,356.064,57.513,364.672"/>
	<path clip-path="url(#SVGID_2_)" fill="#414042" d="M290.679,523.839c-7.73-12.385-9.559-36.604-4.086-54.094
		c5.474-17.491,16.177-21.63,23.907-9.245c7.729,12.385,9.559,36.604,4.085,54.095C309.111,532.085,298.408,536.225,290.679,523.839
		"/>
	<path clip-path="url(#SVGID_2_)" fill="none" stroke="#414042" stroke-miterlimit="10" d="M388.873,107.428
		c1.896-3.142,6.765-3.678,10.875-1.198c4.111,2.48,5.907,7.037,4.013,10.178"/>
	<path clip-path="url(#SVGID_2_)" fill="none" stroke="#414042" stroke-miterlimit="10" d="M415.877,126.344
		c1.993-3.08,6.877-3.461,10.907-0.852s5.681,7.221,3.688,10.301"/>
	<path clip-path="url(#SVGID_2_)" fill="#414042" d="M126.865,93.065c1.265-19.768,19.235-37.589,40.138-39.805
		c20.902-2.216,36.821,12.013,35.557,31.781c-1.265,19.768-19.236,37.589-40.138,39.804
		C141.519,127.061,125.6,112.833,126.865,93.065"/>
	<path clip-path="url(#SVGID_2_)" fill="#414042" d="M393.481,110.062c-0.114-2.4,1.738-4.439,4.139-4.555
		c2.4-0.114,4.439,1.738,4.555,4.138c0.115,2.401-1.738,4.44-4.138,4.555C395.636,114.315,393.597,112.462,393.481,110.062"/>
	<path clip-path="url(#SVGID_2_)" fill="#414042" d="M420.234,128.866c-0.039-2.403,1.878-4.382,4.28-4.421
		c2.403-0.039,4.382,1.878,4.421,4.281c0.038,2.403-1.878,4.382-4.28,4.421C422.252,133.185,420.272,131.269,420.234,128.866"/>
	<path clip-path="url(#SVGID_2_)" fill="#414042" d="M278.239,453.187c0.017-2.204,1.817-3.978,4.021-3.961
		c2.205,0.017,3.979,1.815,3.962,4.021"/>
	<path clip-path="url(#SVGID_2_)" fill="none" stroke="#414042" stroke-miterlimit="10" d="M278.239,453.187
		c0.017-2.204,1.817-3.978,4.021-3.961c2.205,0.017,3.979,1.815,3.962,4.021"/>
	
		<line clip-path="url(#SVGID_2_)" fill="none" stroke="#414042" stroke-miterlimit="10" x1="288.596" y1="453.265" x2="275.865" y2="453.169"/>
	<path clip-path="url(#SVGID_2_)" fill="#414042" d="M312.747,453.287c0.017-2.205,1.817-3.979,4.021-3.962s3.979,1.817,3.962,4.021
		"/>
	<path clip-path="url(#SVGID_2_)" fill="none" stroke="#414042" stroke-miterlimit="10" d="M312.747,453.287
		c0.017-2.205,1.817-3.979,4.021-3.962s3.979,1.817,3.962,4.021"/>
	
		<line clip-path="url(#SVGID_2_)" fill="none" stroke="#414042" stroke-miterlimit="10" x1="323.104" y1="453.364" x2="310.373" y2="453.27"/>
	<path clip-path="url(#SVGID_2_)" fill="#FFFFFF" d="M290.152,350.917l-40.602-10.081c-3.07-0.762-4.94-3.868-4.178-6.938
		l15.487-62.377c0.762-3.07,3.868-4.941,6.938-4.179l40.602,10.081c3.069,0.762,4.939,3.868,4.178,6.937l-15.487,62.378
		C296.328,349.809,293.223,351.679,290.152,350.917"/>
</g>
</svg>
