<svg xmlns="http://www.w3.org/2000/svg" width="56.895" height="53.102" viewBox="0 0 56.895 53.102">
  <g id="group" transform="translate(0 1536)">
    <path id="path3041" d="M17.572-1509.449a10.217,10.217,0,0,0-7.853,3.793H5.749a6.793,6.793,0,0,1-4.089-1.2A4.06,4.06,0,0,1,0-1510.368q0-10.46,3.674-10.46a5.653,5.653,0,0,1,1.289.623,19.557,19.557,0,0,0,2.889,1.259,10.4,10.4,0,0,0,3.526.637,11.905,11.905,0,0,0,3.941-.682,14.775,14.775,0,0,0-.148,1.956A13.047,13.047,0,0,0,17.572-1509.449Zm31.737,18.876a7.385,7.385,0,0,1-2.163,5.615A7.992,7.992,0,0,1,41.4-1482.9H15.5a7.992,7.992,0,0,1-5.749-2.059,7.385,7.385,0,0,1-2.163-5.615q0-1.571.1-3.067a30.173,30.173,0,0,1,.415-3.23,25.117,25.117,0,0,1,.785-3.215,15.244,15.244,0,0,1,1.274-2.889,10.424,10.424,0,0,1,1.837-2.4,7.735,7.735,0,0,1,2.534-1.585,8.9,8.9,0,0,1,3.3-.592,3.493,3.493,0,0,1,1.274.637q.978.637,2.163,1.422a12.976,12.976,0,0,0,3.171,1.423,13.02,13.02,0,0,0,4,.637,13.02,13.02,0,0,0,4-.637,12.975,12.975,0,0,0,3.171-1.423q1.185-.785,2.163-1.422a3.493,3.493,0,0,1,1.274-.637,8.9,8.9,0,0,1,3.3.592,7.735,7.735,0,0,1,2.534,1.585,10.424,10.424,0,0,1,1.837,2.4A15.244,15.244,0,0,1,48-1500.085a25.116,25.116,0,0,1,.785,3.215,30.173,30.173,0,0,1,.415,3.23Q49.309-1492.144,49.309-1490.573Zm-30.344-37.841a7.308,7.308,0,0,1-2.222,5.363,7.309,7.309,0,0,1-5.364,2.222,7.309,7.309,0,0,1-5.364-2.222,7.308,7.308,0,0,1-2.222-5.363,7.308,7.308,0,0,1,2.222-5.364A7.309,7.309,0,0,1,11.379-1536a7.309,7.309,0,0,1,5.364,2.223A7.308,7.308,0,0,1,18.965-1528.414Zm20.861,11.379a10.964,10.964,0,0,1-3.334,8.045,10.964,10.964,0,0,1-8.045,3.333,10.964,10.964,0,0,1-8.045-3.333,10.964,10.964,0,0,1-3.334-8.045,10.963,10.963,0,0,1,3.334-8.045,10.962,10.962,0,0,1,8.045-3.333,10.962,10.962,0,0,1,8.045,3.333A10.963,10.963,0,0,1,39.826-1517.035Zm17.068,6.667a4.06,4.06,0,0,1-1.659,3.511,6.793,6.793,0,0,1-4.089,1.2H47.175a10.217,10.217,0,0,0-7.853-3.793,13.047,13.047,0,0,0,2.4-7.586,14.775,14.775,0,0,0-.148-1.956,11.905,11.905,0,0,0,3.941.682,10.4,10.4,0,0,0,3.526-.637,19.557,19.557,0,0,0,2.889-1.259,5.653,5.653,0,0,1,1.289-.623Q56.895-1520.828,56.895-1510.368ZM53.1-1528.414a7.308,7.308,0,0,1-2.222,5.363,7.309,7.309,0,0,1-5.364,2.222,7.309,7.309,0,0,1-5.364-2.222,7.308,7.308,0,0,1-2.222-5.363,7.308,7.308,0,0,1,2.222-5.364A7.309,7.309,0,0,1,45.516-1536a7.309,7.309,0,0,1,5.364,2.223A7.308,7.308,0,0,1,53.1-1528.414Z" transform="translate(0 0)" fill="rgba(255,255,255,0.71)"/>
  </g>
</svg>
