<?xml version="1.0" encoding="utf-8"?>
<!-- Generator: Adobe Illustrator 16.0.0, SVG Export Plug-In . SVG Version: 6.00 Build 0)  -->
<!DOCTYPE svg PUBLIC "-//W3C//DTD SVG 1.1//EN" "http://www.w3.org/Graphics/SVG/1.1/DTD/svg11.dtd">
<svg version="1.1" id="Layer_1" xmlns="http://www.w3.org/2000/svg" xmlns:xlink="http://www.w3.org/1999/xlink" x="0px" y="0px"
	 width="71.861px" height="93.176px" viewBox="0 0 71.861 93.176" enable-background="new 0 0 71.861 93.176" xml:space="preserve">
<g id="jamr_logo_blak" transform="translate(-4.539 -1.722)" opacity="0.5">
	<g id="Group_13" transform="translate(61.788 94.898)">
		<path id="Path_33" fill="none" stroke="#FFFFFF" stroke-miterlimit="10" d="M0,0"/>
	</g>
	<ellipse id="Ellipse_1" fill="none" stroke="#FFFFFF" stroke-miterlimit="10" cx="40.212" cy="37.226" rx="25.518" ry="25.394"/>
	<ellipse id="Ellipse_2" fill="none" stroke="#FFFFFF" stroke-miterlimit="10" cx="40.213" cy="37.226" rx="30.611" ry="30.465"/>
	<ellipse id="Ellipse_3" fill="none" stroke="#FFFFFF" stroke-miterlimit="10" cx="40.333" cy="37.346" rx="35.294" ry="35.124"/>
	<path id="Path_34" fill="#FFFFFF" d="M32.205,26.359v18.334c-0.982-0.702-2.162-1.076-3.369-1.068c-2.923,0-5.3,2.09-5.3,4.659
		s2.379,4.659,5.3,4.659s5.301-2.09,5.301-4.659V32.367l15.739-3.9v11.854c-0.982-0.703-2.164-1.077-3.373-1.068
		c-2.923,0-5.3,2.09-5.3,4.659s2.377,4.659,5.3,4.659c2.924,0,5.301-2.09,5.301-4.659v-22.4L32.205,26.359z"/>
	<ellipse id="Ellipse_4" fill="#FFFFFF" cx="35.538" cy="6.763" rx="2.13" ry="2.02"/>
	<ellipse id="Ellipse_5" fill="#FFFFFF" cx="74.272" cy="27.102" rx="2.13" ry="2.02"/>
	<ellipse id="Ellipse_6" fill="#FFFFFF" cx="53.934" cy="64.639" rx="2.13" ry="2.021"/>
	<ellipse id="Ellipse_7" fill="#FFFFFF" cx="7.17" cy="49.087" rx="2.131" ry="2.02"/>
</g>
</svg>
