<svg xmlns="http://www.w3.org/2000/svg" width="71.862" height="93.176" viewBox="0 0 71.862 93.176">
  <g id="jamr_logo_blak" transform="translate(-4.539 -1.722)">
    <g id="Group_13" data-name="Group 13" transform="translate(61.788 94.898)">
      <path id="Path_33" data-name="Path 33" d="M52.471,323.166" transform="translate(-52.471 -323.166)" fill="rgba(255,255,255,0.47)"/>
    </g>
    <ellipse id="Ellipse_1" data-name="Ellipse 1" cx="25.517" cy="25.394" rx="25.517" ry="25.394" transform="translate(14.695 11.832)" fill="none" stroke="rgba(255,255,255,0.48)" stroke-miterlimit="10" stroke-width="1"/>
    <ellipse id="Ellipse_2" data-name="Ellipse 2" cx="30.611" cy="30.465" rx="30.611" ry="30.465" transform="translate(9.602 6.761)" fill="none" stroke="rgba(255,255,255,0.48)" stroke-miterlimit="10" stroke-width="1"/>
    <ellipse id="Ellipse_3" data-name="Ellipse 3" cx="35.294" cy="35.124" rx="35.294" ry="35.124" transform="translate(5.039 2.222)" fill="none" stroke="rgba(255,255,255,0.48)" stroke-miterlimit="10" stroke-width="1"/>
    <path id="Path_34" data-name="Path 34" d="M29.169,23.192V41.526A5.739,5.739,0,0,0,25.8,40.458c-2.923,0-5.3,2.09-5.3,4.659s2.379,4.659,5.3,4.659,5.3-2.09,5.3-4.659V29.2L46.84,25.3V37.154a5.734,5.734,0,0,0-3.373-1.068c-2.923,0-5.3,2.09-5.3,4.659s2.377,4.659,5.3,4.659,5.3-2.09,5.3-4.659v-22.4Z" transform="translate(3.036 3.167)" fill="rgba(255,255,255,0.47)"/>
    <ellipse id="Ellipse_4" data-name="Ellipse 4" cx="2.13" cy="2.02" rx="2.13" ry="2.02" transform="translate(33.408 4.743)" fill="rgba(255,255,255,0.47)"/>
    <ellipse id="Ellipse_5" data-name="Ellipse 5" cx="2.13" cy="2.02" rx="2.13" ry="2.02" transform="translate(72.142 25.082)" fill="rgba(255,255,255,0.47)"/>
    <ellipse id="Ellipse_6" data-name="Ellipse 6" cx="2.13" cy="2.02" rx="2.13" ry="2.02" transform="translate(51.804 62.619)" fill="rgba(255,255,255,0.47)"/>
    <ellipse id="Ellipse_7" data-name="Ellipse 7" cx="2.13" cy="2.02" rx="2.13" ry="2.02" transform="translate(5.04 47.067)" fill="rgba(255,255,255,0.47)"/>
  </g>
</svg>
