<?xml version="1.0" encoding="utf-8"?>
<!-- Generator: Adobe Illustrator 16.0.0, SVG Export Plug-In . SVG Version: 6.00 Build 0)  -->
<!DOCTYPE svg PUBLIC "-//W3C//DTD SVG 1.1//EN" "http://www.w3.org/Graphics/SVG/1.1/DTD/svg11.dtd">
<svg version="1.1" id="Layer_1" xmlns="http://www.w3.org/2000/svg" xmlns:xlink="http://www.w3.org/1999/xlink" x="0px" y="0px"
	 width="322.667px" height="164.667px" viewBox="0 0 322.667 164.667" enable-background="new 0 0 322.667 164.667"
	 xml:space="preserve">
<g>
	<path d="M20.401,133.738l0.345-1.449c-0.323-0.276-0.483-0.623-0.483-1.037c0-1.979,0.311-3.291,0.932-3.937
		c0.622-0.646,1.197-1.669,1.727-3.073c0.529-1.404,0.978-2.268,1.347-2.59c0.368-0.322,0.805-1.268,1.312-2.832
		c0.506-1.566,1.658-3.154,3.453-4.766c0.322-2.348,1.357-3.752,3.108-4.213l2.555-4.006c0.23-0.275,0.563-0.471,1.001-0.586
		c0.437-0.115,1.001-0.473,1.692-1.071c0.276-1.06,1.174-1.957,2.694-2.693l2.002-2.003l1.105-0.552
		c0.276-0.185,0.989-0.829,2.141-1.935c1.15-1.104,2.29-1.99,3.419-2.658c1.127-0.668,2.198-1.312,3.211-1.935
		c1.012-0.622,1.623-1.174,1.83-1.657c0.207-0.482,0.563-1.242,1.07-2.279c0.506-1.035,0.967-2.129,1.381-3.279l1.381-1.796
		c0.092-0.093,0.138-0.183,0.138-0.276c0-0.092-0.093-0.346-0.276-0.76v-0.138c0-1.012,0.449-2.06,1.347-3.143
		c0.898-1.081,1.347-2.29,1.347-3.625c0-0.368,0.333-1.047,1.001-2.038c0.667-0.99,1.185-1.577,1.554-1.761l-0.276-1.727
		c0.276-0.736,0.598-1.323,0.967-1.761c0.368-0.437,0.736-1.485,1.105-3.142c0.506-1.15,0.99-1.727,1.45-1.727
		c0.368,0,0.667,0.231,0.898,0.69c0.23,0.461,0.391,0.691,0.483,0.691c0.092-0.092,0.138-0.184,0.138-0.276
		c0-0.553-0.231-0.933-0.69-1.14c-0.461-0.207-0.691-0.472-0.691-0.794c0-1.15,0.161-2.003,0.483-2.556
		c0.322-0.552,0.506-1.024,0.553-1.416c0.045-0.391,0.218-0.726,0.518-1.001c0.299-0.276,0.471-0.575,0.518-0.898
		c0.045-0.322,0.115-0.689,0.208-1.104v-0.691c0-0.459,0.299-1.093,0.898-1.899c0.598-0.805,0.943-1.3,1.036-1.485
		c0.092-0.184,0.184-0.322,0.276-0.415l0.622-0.138l0.138-0.414c-0.691-0.092-1.036-0.483-1.036-1.174
		c0-0.736,0.529-1.289,1.588-1.657c-0.276-0.598-0.414-1.082-0.414-1.451c0-1.197,0.598-1.795,1.795-1.795h0.483l0.138-0.345
		c-0.415-0.46-0.622-0.875-0.622-1.243c0-1.611,0.391-2.417,1.174-2.417c0.091,0,0.229,0.046,0.414,0.138l0.415,0.138v-0.415
		c-0.553-0.506-0.829-0.967-0.829-1.381l0.552-1.588l-0.138-1.105c0-0.459,0.252-0.817,0.76-1.07c0.506-0.252,0.76-0.472,0.76-0.656
		l0.207-0.69c0.092-0.184,0.138-0.76,0.138-1.727c0.23-0.23,0.415-0.506,0.553-0.829v-0.414l-0.138-1.45
		c0-0.092,0.114-0.346,0.345-0.76c0.23-0.415,0.345-0.713,0.345-0.898c0-3.222-0.853-5.479-2.555-6.768
		c-0.553-0.092-1.012-0.299-1.379-0.622c-0.092,0-0.207-0.045-0.344-0.138h-2.339l-2.132,1.036l-1.239-0.138
		c-0.596,0.645-0.94,0.967-1.032,0.967l-0.962-0.138c-0.184,0-0.448,0.253-0.791,0.76c-0.344,0.507-0.768,0.875-1.273,1.105
		c-0.505,0.231-1.043,0.68-1.616,1.347c-0.574,0.668-1.135,1.117-1.686,1.347c-0.55,0.231-0.997,0.518-1.341,0.863
		c-0.344,0.345-1.066,0.887-2.167,1.623c-0.458,1.243-1.353,2.096-2.683,2.555c-0.184,0.185-0.367,0.714-0.55,1.588
		c-1.239,1.06-2.224,2.188-2.958,3.384l-5.502,8.219c-0.184,0.23-0.344,0.759-0.482,1.588c-0.138,0.829-0.298,1.336-0.481,1.519
		l-1.17,1.243v0.276l0.138,0.691c-1.019,0.921-1.528,1.497-1.528,1.727c0,0.369,0.046,0.69,0.139,0.967v0.76
		c0,0.046-0.278,1.105-0.834,3.177l-0.764,3.039c-0.186,0.369-0.277,0.922-0.277,1.658l-0.695,4.282
		c0,0.046,0.162,0.311,0.486,0.794c0.324,0.483,0.486,0.818,0.486,1.001l-0.139,1.727l0.139,2.555l-0.417,1.52
		c0.37,0.507,0.857,1.405,1.459,2.693l0.556,0.898h0.138l-0.138,1.795c0.833,0.599,1.468,1.462,1.906,2.59
		c0.438,1.129,1.129,1.831,2.073,2.106c0.943,0.275,1.737,1.14,2.383,2.59c0.644,1.449,0.967,2.75,0.967,3.902
		c0,1.428-0.323,2.141-0.967,2.141c-1.658,0-2.637-0.184-2.936-0.553c-0.3-0.369-0.887-1.312-1.761-2.832l-1.804-4.559l-2.083-3.661
		c-0.417-0.69-0.695-1.357-0.834-2.002c-0.139-0.646-0.406-1.15-0.798-1.521c-0.394-0.368-0.59-0.667-0.59-0.898l0.139-1.105
		l-0.278-1.45c0-0.46-0.139-0.967-0.417-1.52c-0.278-0.552-0.44-1.231-0.487-2.037c-0.046-0.805-0.243-1.451-0.588-1.934
		c-0.347-0.483-0.519-1.14-0.519-1.968c0-0.368-0.138-0.943-0.415-1.727c0.092-0.459,0.138-1.357,0.138-2.693l-0.415-2.072V59.08
		l-0.138-0.898v-0.276c0-3.591,0.437-6.837,1.312-9.738c0.092-0.276,0.138-0.805,0.138-1.588l1.379-4.766l1.035-2.279
		c0.826-2.025,1.597-3.476,2.31-4.351c0.712-0.874,1.161-1.599,1.345-2.175c0.184-0.575,0.781-1.093,1.793-1.554
		c0.874-1.611,1.403-2.509,1.586-2.693l0.828-0.138c0.643-1.381,1.631-2.186,2.965-2.417c0-1.105,1.08-2.141,3.242-3.108
		c0.781-0.46,1.379-0.967,1.793-1.52c0.413-0.552,1.103-0.829,2.07-0.829l7.448-2.832c0.138-0.092,0.529,0.185,1.173,0.829h0.138
		c0.275,0,0.436-0.161,0.482-0.483c0.045-0.322,0.23-0.563,0.552-0.725c0.321-0.161,0.62-0.425,0.896-0.794h0.276l1.035,0.276
		c1.884,0,3.241-0.138,4.069-0.415h1.103l0.621-0.138c3.449,0,5.609,0.714,6.483,2.141l4.209,3.66l0.76,2.279l0.415,4.627v1.588
		l-0.622,1.105c0.138,0.276,0.207,0.483,0.207,0.622l-1.036,8.771l-1.312,4.075c-0.967,3.315-1.761,5.088-2.383,5.318
		s-0.932,0.392-0.932,0.483c0.368,0.507,0.552,0.921,0.552,1.243l-0.276,0.898v1.105l-0.967,3.315
		c-0.276,1.151-0.898,2.026-1.865,2.625c-0.185,0-0.276,0.093-0.276,0.276l0.552,0.69v0.276c0,0.231-0.093,0.668-0.276,1.312
		c-0.185,0.646-0.3,1.186-0.345,1.623c-0.046,0.438-0.288,0.749-0.725,0.932c-0.438,0.185-0.703,0.415-0.794,0.691v1.865
		c0,0.507-0.426,1.104-1.277,1.795c-0.853,0.691-1.278,1.129-1.278,1.312l0.138,1.657c-0.276,0.461-0.553,1.221-0.829,2.279
		c-0.276,1.06-0.611,1.75-1.001,2.072c-0.392,0.323-0.611,0.76-0.656,1.312c-0.046,0.552-0.415,1.324-1.105,2.313
		c-0.69,0.991-1.036,1.646-1.036,1.968c0,0.276,0.092,0.415,0.276,0.415c0.46,0,0.933-0.356,1.416-1.071
		c0.483-0.713,1.461-1.392,2.935-2.037l2.279-1.865c0.368-0.368,0.933-0.691,1.692-0.967c0.76-0.276,1.727-1.059,2.9-2.348
		c1.174-1.289,2.432-2.118,3.771-2.486l2.033-1.381c0.56-0.322,1.027-0.483,1.402-0.483c0.981,0,1.472,0.483,1.472,1.45
		c0,0.369-0.15,0.91-0.45,1.623c-0.3,0.714-0.483,1.381-0.553,2.003c-0.069,0.622-0.68,1.301-1.832,2.037l-0.899,0.829l-1.384-0.138
		c-0.369,0.185-0.762,0.656-1.176,1.416c-0.415,0.76-0.83,1.14-1.245,1.14c-0.369,0-0.783,0.138-1.244,0.415l-0.899,0.276h-0.691
		c-0.185,0.138-0.438,0.53-0.761,1.174c-0.323,0.645-0.784,1.036-1.382,1.174l-4.634,2.485h-0.415
		c-0.969,0.968-1.591,1.521-1.867,1.658h-1.246c-2.12,1.521-3.319,2.463-3.595,2.832c0,1.521-0.461,2.555-1.383,3.108h-0.139
		l0.139,1.588c0,0.185-0.393,0.646-1.176,1.381c-0.093,0-0.138,0.162-0.138,0.482l0.138,1.105v0.138
		c0,0.185-0.369,0.817-1.106,1.899c-0.738,1.082-1.199,1.854-1.383,2.312c0.093,0.231,0.139,0.483,0.139,0.76
		c0,0.737-0.531,1.336-1.59,1.795c0,0.369-0.681,1.899-2.041,4.594c-1.359,2.693-2.339,4.431-2.938,5.214l-7.061,13.26
		c-0.277,0.276-0.646,0.459-1.107,0.552c-0.324,0.783-0.854,1.357-1.592,1.728c0,1.427-0.555,2.37-1.662,2.832
		c-0.416,1.104-0.993,2.003-1.731,2.694c-0.276,1.748-0.727,2.703-1.349,2.865c-0.624,0.161-1.004,0.541-1.143,1.141
		c-0.138,0.598-0.669,1.059-1.592,1.381c-0.324,1.564-1.039,2.395-2.146,2.486c-0.369,0.414-0.658,0.942-0.865,1.588
		c-0.208,0.645-0.807,1.207-1.799,1.691c-0.993,0.484-1.811,1.023-2.456,1.623c-0.646,0.598-1.405,1.105-2.279,1.52
		c-2.072-0.137-3.764-1.336-5.076-3.59c-1.312-2.256-1.968-4.42-1.968-6.492l0.276-2.279l-0.138-2.072L20.401,133.738z
		 M26.213,137.259l0.345,0.83l0.069,1.104c0.092,0.322,0.207,0.483,0.345,0.483c0.459,0,1.012-0.576,1.657-1.727l1.727-1.796
		c0.736-0.784,1.3-1.854,1.692-3.211c0.391-1.358,1.187-2.13,2.387-2.313c0.185-1.889,1.363-4.145,3.535-6.769
		c0.185-0.323,0.393-0.862,0.624-1.622c0.231-0.761,0.578-1.416,1.04-1.969c0.462-0.553,0.729-1.048,0.798-1.484
		c0.069-0.438,0.589-1.209,1.56-2.313c0.138-1.151,0.555-2.349,1.248-3.591c0.693-1.243,1.409-2.578,2.149-4.006l2.417-4.834
		l4.213-6.078c0-0.275-0.069-0.414-0.208-0.414l-2.624,1.381c-0.922,0.369-1.554,0.863-1.899,1.484
		c-0.345,0.623-0.611,0.933-0.794,0.933c-0.599,0-1.152,0.473-1.661,1.416c-0.508,0.944-1.039,1.669-1.594,2.175
		c-0.555,0.507-0.971,0.841-1.249,1.001c-0.277,0.162-0.416,0.288-0.416,0.38c0,0.094-0.162,0.553-0.484,1.381
		c-0.463,0.369-1.018,0.979-1.665,1.83c-0.647,0.854-1.144,1.381-1.49,1.588c-0.348,0.207-0.751,0.91-1.213,2.106l-1.109,0.69
		c-0.417,1.196-0.81,2.142-1.179,2.832l-0.971,0.139c-0.322,0.552-0.507,1.093-0.552,1.623c-0.046,0.529-0.138,0.793-0.276,0.793
		l-0.76,0.277c-0.185,0.229-0.507,0.851-0.967,1.864l-0.552,0.414c-0.185,0.185-0.276,0.806-0.276,1.865
		c0,0.46-0.219,0.967-0.656,1.521c-0.438,0.551-0.841,1.403-1.208,2.555l-0.829,2.279c0,0.643-0.185,1.381-0.553,2.209l-0.76,0.483
		c0,0.368-0.138,1.403-0.415,3.108C25.89,136.292,26.075,136.753,26.213,137.259z"/>
	<path d="M133.448,90.021l1.102-0.967c0.688,0,1.101-0.311,1.239-0.934c0.138-0.621,0.631-1.115,1.48-1.484
		c0.85-0.368,1.642-1.116,2.376-2.245c0.734-1.127,1.491-1.692,2.271-1.692c0.275,0,0.597,0.231,0.963,0.69
		c0.367,0.461,0.552,0.829,0.552,1.104c0,1.521-0.461,3.086-1.381,4.696l-0.275,1.935l-0.483,0.897
		c-0.69,0.369-1.14,0.759-1.347,1.174s-0.748,0.921-1.622,1.521l-0.69,0.967c-1.013,0.322-1.692,0.854-2.038,1.588
		c-0.345,0.736-0.828,1.15-1.449,1.243c-0.622,0.093-1.3,0.553-2.036,1.381c-0.461,0.231-1.013,0.438-1.658,0.622l-0.138,0.689
		c-0.461,0.461-1.186,0.83-2.176,1.105c-0.989,0.275-1.726,0.542-2.209,0.794c-0.483,0.253-0.817,0.38-1,0.38
		c-0.875,0-1.682-0.173-2.417-0.518c-0.735-0.346-1.496-0.562-2.278-0.656c-0.276-0.275-0.438-0.575-0.483-0.896
		c-0.046-0.322-0.276-0.748-0.691-1.278c-0.414-0.529-0.621-1.255-0.621-2.175l0.276-1.312c0-0.184-0.115-0.415-0.345-0.689
		c-0.231-0.276-0.345-0.506-0.345-0.691c0-0.184,0.045-0.32,0.138-0.414c0.092-0.092,0.138-0.23,0.138-0.415
		c0-0.229-0.046-0.483-0.138-0.76c-0.093-0.276-0.138-0.507-0.138-0.69l0.414-3.384c0-0.276-0.093-0.415-0.276-0.415
		c-0.185,0-0.518,0.23-1.001,0.691s-1.048,0.689-1.692,0.689c-0.369,0.276-0.668,0.854-0.899,1.727
		c-0.369,0.461-0.829,0.875-1.381,1.244l-0.276,0.414c-0.093,0.323-0.438,0.588-1.036,0.795c-0.599,0.207-1.013,0.473-1.243,0.793
		l-0.69,0.69l-1.312-0.138c-0.093,0.093-0.347,0.494-0.761,1.208c-0.415,0.714-0.944,1.301-1.589,1.761l-5.25,4.282
		c-0.553,0.368-1.359,0.829-2.417,1.381l-0.415,0.414c-3.684,2.44-6.286,3.661-7.805,3.661c-1.244,0-2.694-0.346-4.352-1.036
		c-1.657-0.69-2.555-1.519-2.693-2.485l-0.69-2.832c-0.415-0.645-0.622-1.543-0.622-2.693c0-0.553,0.045-0.92,0.138-1.105v-0.415
		l-0.138-2.278c0-0.554,0.437-0.83,1.312-0.83l-0.138-1.864c0-0.183,0.403-0.908,1.208-2.175c0.805-1.266,1.347-1.991,1.623-2.176
		l0.691-0.897c-0.046-0.554,0.276-1.14,0.968-1.761c0.691-0.623,1.244-1.254,1.66-1.899c0.415-0.646,1.199-1.358,2.352-2.141
		l2.074-2.072c1.613-1.611,3.365-2.901,5.255-3.868c0.276-0.092,0.841-0.553,1.693-1.381s1.821-1.438,2.905-1.83
		c1.083-0.391,2.143-0.886,3.18-1.485c1.037-0.598,1.856-0.898,2.456-0.898h0.553c0.183,0,1.405-0.575,3.665-1.727h0.416
		c0.184,0,0.622,0.185,1.313,0.553h0.138l1.107-0.553c0.183-0.092,0.414-0.138,0.69-0.138c2.857,0,4.426,1.98,4.703,5.939
		c0.092,0.829,0.323,1.243,0.692,1.243c0.46,0,1.117-0.839,1.969-2.521c0.853-1.68,2.661-2.521,5.425-2.521
		c1.979,0,2.97,1.267,2.97,3.798c0,2.994-1.336,5.825-4.005,8.496c-0.185,0.369-0.323,0.783-0.415,1.242l-0.967,2.832v0.139
		c0,0.275-0.196,0.656-0.587,1.14c-0.392,0.483-0.587,0.909-0.587,1.278l0.138,1.727l-0.276,1.934c0,0.875,0.161,1.451,0.482,1.728
		c1.469-0.368,2.536-0.978,3.202-1.83s1.137-1.323,1.412-1.416l0.688-0.276C132.415,91.057,132.897,90.481,133.448,90.021z
		 M110.514,90.021c0.185-1.012,0.749-1.784,1.693-2.314c0.943-0.527,1.507-1.069,1.692-1.623c0.874-0.645,2.129-1.795,3.764-3.454
		c1.635-1.657,2.453-2.669,2.453-3.039c0-0.138-0.093-0.207-0.276-0.207h-0.138l-0.552,0.345l-1.243-0.138l-1.313,0.138
		l-0.967-0.483l-0.898,0.138l-1.381-0.276c-0.737,0-1.37,0.15-1.899,0.449c-0.53,0.3-1.543,0.634-3.04,1.001
		c-1.497,0.369-2.843,1.001-4.041,1.899c-1.198,0.898-2.072,1.347-2.625,1.347c-0.323,0.689-1.405,1.681-3.246,2.97
		c-1.106,0.369-1.82,1.175-2.142,2.417c-1.198,0.967-1.795,1.52-1.795,1.658l-0.483,1.174c-0.369,0.322-0.829,0.587-1.381,0.794
		c-0.553,0.207-0.875,0.69-0.967,1.45c-0.093,0.76-0.404,1.451-0.933,2.072C90.265,96.962,90,97.457,90,97.826
		c0,2.256,0.438,3.383,1.312,3.383c0.368,0,1.14-0.242,2.313-0.725c1.174-0.482,1.853-0.816,2.038-1.001
		c0.183-0.183,0.552-0.368,1.105-0.552l1.313-0.691c0.184-0.183,0.391-0.299,0.622-0.345c0.23-0.045,0.46-0.194,0.691-0.449
		c0.229-0.252,0.644-0.528,1.243-0.829c0.598-0.299,1.059-0.701,1.381-1.207c0.782-0.459,2.049-1.175,3.799-2.142l1.45-1.104
		c1.012-0.459,1.634-0.852,1.865-1.174C109.363,90.666,109.824,90.343,110.514,90.021z"/>
	<path d="M147.446,87.88v-0.69c0-0.46,0.459-1.45,1.38-2.97c0.919-1.52,1.978-2.509,3.175-2.97c0.092,0,0.138-0.045,0.138-0.138
		l-0.138-1.105c0.184-0.184,0.643-0.783,1.379-1.796c0.736-1.012,1.449-1.45,2.14-1.312c0.506-0.736,1.15-1.347,1.933-1.83
		c0.781-0.483,1.495-1.116,2.139-1.899l2.553-1.588c1.793-1.197,3.104-1.796,3.935-1.796h1.035c0.551-0.92,1.287-1.381,2.209-1.381
		c0.873,0,1.448,0.138,1.725,0.415c0.093,0.093,0.185,0.138,0.277,0.138c0.045,0,0.32-0.184,0.827-0.553
		c0.505-0.368,1.126-0.552,1.864-0.552c0.184,0,1.218,0.369,3.104,1.105c0.553-0.553,1.082-0.829,1.588-0.829
		c0.184,0,0.506,0.138,0.965,0.414s0.932,0.518,1.416,0.726c0.484,0.207,0.955,1.06,1.414,2.555c0.461,1.497,0.69,2.337,0.69,2.521
		c0,0.737-0.608,1.601-1.825,2.59c-1.219,0.99-2.355,1.485-3.41,1.485c-0.369,0-0.828-0.322-1.379-0.967
		c-1.379-0.276-2.551-0.622-3.516-1.036c-1.286,0.276-2.273,0.622-2.963,1.036h-0.137l-0.621-0.552l-0.551-0.138h-0.139
		c-0.138,0.185-0.322,0.507-0.551,0.967c-0.734,0.507-1.366,0.841-1.895,1.001c-0.529,0.162-0.953,0.415-1.274,0.76
		c-0.322,0.345-0.862,0.703-1.62,1.07c-0.758,0.369-1.322,0.875-1.688,1.52c-0.919,0.507-1.585,0.805-1.999,0.898h-0.414
		c-0.368,0.737-1.218,1.958-2.55,3.66l-1.792,2.97c-0.414,0.369-0.921,0.794-1.519,1.278c-0.599,0.483-0.898,0.909-0.898,1.276
		c0,0.094,0.045,0.323,0.138,0.691v0.689c0,0.276-0.219,0.611-0.656,1.002c-0.438,0.392-0.656,0.68-0.656,0.863l0.138,1.52
		l-0.552,2.417c0,1.428,1.036,2.141,3.108,2.141h1.036l2.967-0.483c0.964-0.137,1.77-0.275,2.414-0.414
		c0.645-0.139,1.013-0.207,1.104-0.207c0.092,0,0.459-0.252,1.104-0.76h0.691l0.619-0.139c0.184-0.967,1.495-1.771,3.934-2.417
		c0.551-0.829,1.482-1.438,2.793-1.83c1.31-0.391,2.633-1.231,3.967-2.521h1.035c0.138,0,0.562-0.266,1.275-0.795
		c0.713-0.528,1.448-0.955,2.209-1.276c0.758-0.321,1.229-0.599,1.414-0.829c0.184-0.229,0.528-0.438,1.034-0.622
		c0.828-1.288,1.816-2.094,2.968-2.417l0.275-0.275c0.736-0.645,1.195-0.967,1.38-0.967l0.828,0.137
		c0.459,0,0.746-0.287,0.862-0.862c0.113-0.575,0.85-1.356,2.207-2.348c1.356-0.99,2.219-1.485,2.586-1.485
		c0.875,0,1.312,0.461,1.312,1.381c0,0.689-0.392,1.082-1.174,1.174c0.506,1.198,0.76,1.865,0.76,2.004
		c0,1.52-0.76,2.51-2.279,2.969c-0.184,0.094-0.274,0.231-0.274,0.416l-0.14,1.242c0.047,0,0.047,0.034,0,0.104
		c-0.045,0.069-0.137,0.172-0.274,0.312l-1.036,0.137l-0.275,0.416c-1.015,0.552-2.188,1.496-3.522,2.832l-1.38,1.449h-0.207
		c-0.461-0.459-0.829-0.689-1.105-0.689c-0.185,0-0.414,0.322-0.689,0.967c-1.566,1.566-2.693,2.463-3.383,2.693
		c-0.276,0.093-0.76,0.461-1.45,1.104l-1.382,0.897h-1.035c-0.139,0.139-0.266,0.334-0.38,0.588
		c-0.116,0.254-0.519,0.634-1.208,1.14c-0.691,0.507-1.186,0.956-1.484,1.347c-0.3,0.393-0.725,0.681-1.277,0.863l-1.244-0.275
		c-0.414,0.736-1.174,1.104-2.277,1.104c-0.275,0.185-0.68,0.542-1.208,1.071c-0.53,0.529-0.888,0.794-1.071,0.794
		c-0.185,0-0.668-0.276-1.449-0.829h-0.139c-0.461,0-0.689,0.346-0.689,1.036s-0.426,1.06-1.278,1.104
		c-0.852,0.047-1.646,0.276-2.382,0.69h-0.138c-1.06,0-1.82-0.194-2.279-0.587c-0.459-0.391-0.874-0.68-1.242-0.863
		c-1.428,0.461-2.187,0.689-2.279,0.689c-0.553,0-1.083-0.229-1.588-0.689l-2.969-1.52c-0.185-0.139-0.507-0.76-0.967-1.865
		l-0.415-0.553c-1.474-0.275-2.464-1.795-2.97-4.557l-0.553-1.658c-0.093-0.092-0.138-0.299-0.138-0.623
		c0-0.459,0.184-1.162,0.553-2.105c0.368-0.943,0.736-2.21,1.105-3.798C145.535,89.296,146.295,88.294,147.446,87.88z"/>
	<path d="M225.274,100.658l-3.249,2.832c-0.186-0.185-0.369-0.277-0.553-0.277c-0.46,0-1.023,0.416-1.692,1.244
		c-0.67,0.828-1.141,1.242-1.417,1.242l-0.691-0.138c-1.151,0.875-1.979,1.381-2.487,1.521c-0.507,0.137-1.116,0.392-1.831,0.76
		c-0.714,0.369-1.359,0.576-1.936,0.621c-0.576,0.047-1.049,0.242-1.418,0.588c-0.369,0.345-1.267,0.518-2.693,0.518l-1.105-0.138
		c-0.6,0.276-0.99,0.413-1.175,0.413c-0.368,0-0.762-0.194-1.177-0.586c-0.414-0.391-0.864-0.609-1.348-0.656
		c-0.483-0.045-0.979-0.368-1.485-0.967c-0.509-0.598-0.979-1.012-1.416-1.243c-0.438-0.229-0.796-0.552-1.072-0.968l-0.967-0.828
		c-0.783-0.553-1.544-1.565-2.281-3.039c-0.735-1.473-1.104-2.624-1.104-3.453v-0.275l0.139-1.312l-0.139-1.52
		c0.185-0.184,0.414-0.574,0.691-1.174v-2.21l1.656-5.524c0.092-0.23-0.093-0.529-0.552-0.898c-0.462,0.689-0.923,1.105-1.386,1.243
		s-0.776,0.46-0.938,0.967c-0.161,0.507-0.429,0.761-0.799,0.761l-0.836-0.277c-0.093,0.094-0.302,0.564-0.628,1.416
		c-0.323,0.854-0.881,1.277-1.668,1.277c-0.836,0-1.254-0.32-1.254-0.967l0.141-1.242l-0.418-1.728c0-0.368,0.369-1.093,1.107-2.175
		c0.736-1.082,1.418-1.704,2.039-1.865c0.623-0.161,1.153-0.598,1.592-1.312c0.438-0.713,1.396-1.576,2.871-2.59
		c0.83-0.183,1.545-0.782,2.146-1.795c0.646-0.506,1.485-0.92,2.524-1.243c1.037-0.322,1.82-0.794,2.353-1.416
		c0.53-0.622,2.099-1.588,4.705-2.9c2.604-1.312,4.508-1.968,5.707-1.968c0.369,0,0.876-0.104,1.522-0.311
		c0.646-0.207,1.244-0.391,1.799-0.552c0.553-0.161,1.129-0.415,1.729-0.76c0.6-0.345,1.084-0.518,1.453-0.518l2.006,0.69
		c1.477,0.415,2.375,0.714,2.699,0.898c0.092,0.093,0.564,0.288,1.418,0.587c0.854,0.3,1.729,0.703,2.629,1.209
		c0.898,0.507,1.35,1.45,1.35,2.832c-0.785,1.151-1.178,1.773-1.178,1.865c0,0.185,0.53,0.46,1.592,0.829
		c0.369,0.69,0.924,1.588,1.662,2.693l0.76,2.417l0.138,5.664l-0.138,0.551c-0.508,0.462-0.76,0.761-0.76,0.898l0.206,1.381
		l-0.553,1.935c-0.138,0.599-0.369,0.991-0.69,1.174c-0.322,0.185-0.531,0.414-0.621,0.69l-0.416,0.553
		c-0.092,0.138-0.289,0.542-0.588,1.208c-0.3,0.668-0.634,1.187-1.002,1.554c-0.369,0.369-0.6,0.807-0.69,1.312
		c-0.093,0.507-0.322,0.875-0.691,1.104c-0.368,0.231-0.634,0.474-0.794,0.726C225.908,100.253,225.643,100.473,225.274,100.658z
		 M203.813,102.453l0.276,1.588l0.138,0.137h1.103l0.346,0.139c0.918,0.186,1.607,0.275,2.066,0.275
		c1.426,0,2.562-0.355,3.411-1.069c0.851-0.713,1.527-1.071,2.033-1.071c0.505,0,0.929-0.345,1.274-1.035
		c0.344-0.691,0.562-1.037,0.654-1.037h0.965l0.274-0.137c0-1.06,0.472-1.818,1.413-2.279c0.939-0.461,1.607-1.071,1.998-1.832
		c0.391-0.76,0.839-1.334,1.344-1.727c0.505-0.391,0.852-0.908,1.034-1.554l0.551-0.829c0.185-0.184,0.276-0.529,0.276-1.036
		l1.31-2.485c0.275-1.15,0.414-2.049,0.414-2.693c0-0.967-0.493-1.727-1.481-2.279c-0.989-0.552-1.482-1.634-1.482-3.246
		c0-1.059,0.54-2.037,1.62-2.935s1.621-1.438,1.621-1.623c0-0.276-0.14-0.414-0.415-0.414c-0.139,0-0.666,0.185-1.585,0.552
		c-0.321,0.646-1.953,1.497-4.894,2.556c-0.965-0.46-1.492-0.691-1.584-0.691c-0.277,0-0.553,0.276-0.828,0.829
		c-0.275,0.553-0.551,0.944-0.826,1.174h-0.896c-0.092,0-0.391,0.3-0.896,0.898c-0.506,0.599-1.147,0.897-1.93,0.897l-0.826,0.829
		c0.045,0.736-0.414,1.497-1.379,2.279l-0.759,0.898c-0.459,0.553-1.056,1.197-1.791,1.934l-1.241,3.107
		c-0.504,1.198-0.757,2.096-0.757,2.693c-0.139,0.275-0.448,0.564-0.933,0.863c-0.482,0.299-0.727,0.68-0.727,1.14
		c0,0.093,0.162,0.323,0.483,0.69c0.321,0.369,0.483,0.646,0.483,0.83l-0.276,0.897l-0.274,2.556L203.813,102.453z"/>
	<path d="M265.585,104.871l-0.482,0.967c-0.186,0.506-0.646,0.76-1.381,0.76c-0.094,0-0.854,0.275-2.279,0.828
		c-1.428,0.554-2.602,0.83-3.52,0.83l-1.854,0.138c-1.099,0-2.173-0.312-3.226-0.933c-1.052-0.621-1.81-1.185-2.269-1.691
		c-0.461-0.506-1.095-2.025-1.898-4.559c-0.807-2.53-1.209-4.051-1.209-4.558c0-1.795,0.482-2.784,1.449-2.97
		c0-0.275-0.219-0.794-0.655-1.555c-0.437-0.76-0.656-1.185-0.656-1.277c0-2.854,0.622-5.064,1.865-6.63
		c-0.554-1.796-0.829-2.785-0.829-2.97c0-0.092,0.113-0.472,0.346-1.14c0.229-0.667,0.391-1.278,0.483-1.83
		c0.092-0.553,0.229-1.012,0.413-1.381l0.14-1.174c0.093-0.552,0.437-0.829,1.035-0.829c0.274,0,0.414-0.184,0.414-0.553v-0.552
		l-0.138-0.898c0-1.289,0.318-2.221,0.961-2.797c0.64-0.575,1.062-1.427,1.269-2.556c0.206-1.127,0.47-1.83,0.79-2.106
		c0.318-0.276,0.57-0.759,0.755-1.45l0.96-1.934l0.756-2.555c0.09-0.506,0.365-0.829,0.823-0.967
		c0.457-0.138,0.687-0.345,0.687-0.622l-0.137-0.829c0.366-0.967,0.618-1.658,0.758-2.072c0.138-0.415,0.553-0.76,1.242-1.036
		c0.646-1.564,1.209-2.669,1.691-3.315c0.484-0.645,0.863-1.381,1.141-2.21c0.276-0.829,0.967-1.634,2.071-2.417
		c0.092-0.183,0.287-0.656,0.587-1.416c0.299-0.76,0.68-1.185,1.141-1.278c0.459-0.092,0.689-0.276,0.689-0.552l-0.275-0.553
		c0-0.368,0.346-1.036,1.035-2.003l0.829-1.519c0.414-0.46,0.874-0.805,1.382-1.036c0.645-1.289,1.473-2.578,2.485-3.868
		c1.013-1.289,1.888-2.669,2.625-4.144c1.06-1.243,2.048-2.141,2.97-2.694l2.278-2.832c0.554-1.15,1.104-1.727,1.657-1.727
		c0.875-1.657,1.957-2.739,3.246-3.246c0.229-0.092,0.887-0.587,1.969-1.485c1.081-0.898,2.037-1.347,2.865-1.347
		c0.736,0,1.681,0.806,2.832,2.417c1.149,1.612,1.728,2.97,1.728,4.075c0,0.276-0.149,0.68-0.448,1.208
		c-0.301,0.53-0.474,1.083-0.52,1.658c-0.047,0.576-0.322,2.199-0.828,4.869c-0.508,2.671-0.943,4.19-1.312,4.559l-1.863,3.591
		c-0.186,0.552-0.393,0.875-0.623,0.967c-0.229,0.093-0.506,0.46-0.827,1.105l0.345,1.45h-0.138
		c-0.509,0.553-1.036,1.588-1.589,3.108c-0.737,1.105-1.37,2.153-1.899,3.143c-0.528,0.99-0.794,1.646-0.794,1.968l-0.414,0.967
		c-1.014,1.52-1.682,2.74-2.003,3.66c-0.461,0.369-0.817,0.875-1.069,1.52c-0.254,0.646-0.588,1.117-1.002,1.416
		c-0.414,0.3-0.681,0.818-0.795,1.554c-0.115,0.737-0.242,1.174-0.38,1.312l-1.382-0.138v0.138l0.139,2.003
		c0,0.185-0.219,0.392-0.656,0.622c-0.438,0.231-0.817,0.725-1.14,1.485c-0.321,0.76-0.897,1.186-1.727,1.278
		c-0.414,0.276-0.669,0.552-0.761,0.829l0.276,1.312c-0.093,0.093-0.448,0.577-1.069,1.451c-0.623,0.875-1.002,1.336-1.141,1.381
		l-1.449,0.138c-0.277,0.093-0.414,0.898-0.414,2.417c0,1.013-0.461,1.704-1.383,2.072c-2.395,3.684-3.787,5.732-4.178,6.146
		c-0.393,0.415-1.141,0.737-2.245,0.967c0,0.093-0.093,0.139-0.276,0.139c-0.461,0-1.449-0.667-2.97-2.004h-0.138
		c-0.596,2.672-1.064,4.189-1.407,4.559c-0.344,0.369-0.515,0.783-0.515,1.242l0.687,1.244v0.206c0,1.29-0.229,2.878-0.687,4.767
		v0.414l0.275,1.451v2.555l-0.139,1.52c0.365,0.645,0.549,1.221,0.549,1.727c0,1.475,0.365,2.211,1.098,2.211
		c0.367,0,0.942-0.461,1.727-1.381l0.829-0.416c0.829-0.367,1.622-1.197,2.383-2.485s1.14-2.394,1.14-3.315
		c0-0.967-0.943-1.449-2.832-1.449c-0.92-0.185-1.381-1.174-1.381-2.971c0-0.828,0.346-1.576,1.036-2.244s1.288-1.369,1.795-2.107
		c1.104-1.702,2.279-2.555,3.522-2.555l3.521-1.242c0.368,0,0.725,0.068,1.07,0.207c0.346,0.138,0.794,0.3,1.348,0.482
		c1.473-0.552,2.231-0.829,2.278-0.829c1.61,0,2.692,0.829,3.246,2.486c0,0.323,0.368,0.483,1.104,0.483
		c1.61,0,2.957-0.494,4.039-1.485c1.082-0.99,2.233-1.796,3.455-2.417c1.219-0.622,2.209-1.266,2.969-1.934
		c0.76-0.667,1.23-1.001,1.416-1.001h1.035c0.092,0,0.368-0.299,0.83-0.898c0.459-0.598,1.312-0.897,2.555-0.897
		c0.459,0,0.69,0.185,0.69,0.552c0,2.441-0.356,3.879-1.071,4.316c-0.713,0.438-1.576,1.44-2.59,3.005l-0.759,0.414
		c-0.461,0.414-0.876,0.875-1.243,1.381c-0.369,0.508-0.736,0.807-1.105,0.897c-1.059,1.612-1.863,2.417-2.416,2.417
		c-0.276,0-0.588-0.115-0.934-0.346c-0.346-0.229-0.563-0.346-0.656-0.346c-0.275,0-0.506,0.553-0.689,1.658
		c-0.275,0.415-1.036,1.083-2.279,2.004c-0.185,0-0.507-0.277-0.967-0.83c0-0.091-0.046-0.138-0.138-0.138
		c-0.737,0-1.187,0.414-1.347,1.243c-0.162,0.828-0.682,1.29-1.556,1.381l-2.762,0.482l-1.589-0.137
		c-0.369,0-1.163,1.127-2.383,3.383c-1.221,2.256-1.969,3.432-2.244,3.522c-1.428,0.46-2.418,1.312-2.971,2.556L265.585,104.871z
		 M289.134,25.654v-0.829c-1.059,0.276-1.818,1.267-2.278,2.97l-0.553,0.552c-0.875,0.553-1.565,1.324-2.072,2.314
		c-0.507,0.99-1.336,2.199-2.485,3.625l-0.275,0.829l-1.59,2.002l-0.275,1.312c-0.093,0.185-0.438,0.483-1.036,0.898
		c-0.599,0.414-1.001,0.979-1.208,1.692c-0.207,0.714-0.715,1.566-1.52,2.555c-0.807,0.991-1.358,1.658-1.657,2.003
		c-0.302,0.345-0.841,1.578-1.623,3.695l-0.415,0.691c0,0.414-0.23,0.759-0.689,1.036l-2.557,3.108c0,0.185-0.093,0.853-0.275,2.003
		c-0.69,0.093-1.129,0.369-1.312,0.829l-1.104,2.556c-0.094,0.276-0.322,0.599-0.69,0.967c-0.599,2.21-1.45,3.822-2.556,4.834
		l-1.588,3.246c-0.186,0.369-0.324,0.875-0.414,1.52l-0.14,0.415c-0.553,1.06-0.829,1.865-0.829,2.417
		c0,0.185-0.046,0.76-0.138,1.727h0.138c0.092,0,0.276-0.114,0.553-0.345c0.276-0.23,0.646-0.494,1.105-0.794
		c0.459-0.299,0.828-0.863,1.104-1.692c0.276-0.829,0.727-1.416,1.348-1.761c0.622-0.345,1.023-0.701,1.209-1.07l4.145-5.525
		c0.275-0.368,0.655-0.794,1.14-1.278c0.483-0.484,0.726-0.863,0.726-1.14l0.553-0.967c0.275-0.276,0.748-0.782,1.416-1.52
		c0.666-0.736,1.186-1.243,1.553-1.519c0.369-0.276,0.576-0.713,0.623-1.312c0.045-0.598,0.299-1.219,0.76-1.865l0.275-0.552
		c0.506-0.598,0.92-1.036,1.244-1.312c0.32-0.276,0.506-0.575,0.551-0.897c0.047-0.322,0.576-0.921,1.59-1.796
		c0.092-0.69,0.633-1.806,1.623-3.35c0.988-1.542,1.736-2.935,2.244-4.178c0.506-1.243,1.002-2.106,1.484-2.59
		c0.482-0.484,0.794-1.347,0.934-2.59l0.689-1.105L289,29.524l-0.345-1.45L289.134,25.654z"/>
</g>
<g>
	<text transform="matrix(1 0 0 1 57.8032 137.0854)" font-family="'Alatsi-Regular'" font-size="32">Design Developer</text>
</g>
</svg>
