<?xml version="1.0" encoding="utf-8"?>
<!-- Generator: Adobe Illustrator 16.0.0, SVG Export Plug-In . SVG Version: 6.00 Build 0)  -->
<!DOCTYPE svg PUBLIC "-//W3C//DTD SVG 1.1//EN" "http://www.w3.org/Graphics/SVG/1.1/DTD/svg11.dtd">
<svg version="1.1" id="Layer_1" xmlns="http://www.w3.org/2000/svg" xmlns:xlink="http://www.w3.org/1999/xlink" x="0px" y="0px"
	 width="612px" height="792px" viewBox="0 0 612 792" enable-background="new 0 0 612 792" xml:space="preserve">
<path fill="#FFFFFF" d="M306,212.4c-101.592,0-183.6,82.008-183.6,183.6c0,80.784,52.632,149.328,126.072,173.808
	c9.792,1.225,12.24-3.672,12.24-8.567v-31.824c-51.408,11.016-62.424-24.48-62.424-24.48c-8.568-20.808-20.808-26.928-20.808-26.928
	c-17.136-11.016,1.224-11.016,1.224-11.016c18.36,1.224,28.152,18.359,28.152,18.359c15.912,28.152,42.84,19.584,53.856,14.688
	c1.224-12.24,6.12-19.584,12.24-24.48c-40.392-4.896-83.232-20.808-83.232-90.576c0-19.584,7.344-36.72,18.36-48.96
	c-2.448-4.896-8.568-23.256,1.224-48.96c0,0,15.912-4.896,50.184,18.36c14.688-3.672,30.6-6.12,46.512-6.12
	s31.824,2.448,46.512,6.12c35.496-23.256,50.185-18.36,50.185-18.36c9.792,25.704,3.672,44.064,1.224,48.96
	c12.24,12.24,18.36,29.376,18.36,48.96c0,70.992-42.841,85.68-83.232,90.576c6.12,6.12,12.24,17.137,12.24,34.272v50.184
	c0,4.896,3.672,11.017,12.24,8.568c73.439-24.479,124.848-93.024,124.848-173.808C489.6,294.408,407.592,212.4,306,212.4z"/>
</svg>
