<?xml version="1.0" encoding="utf-8"?>
<!-- Generator: Adobe Illustrator 16.0.0, SVG Export Plug-In . SVG Version: 6.00 Build 0)  -->
<!DOCTYPE svg PUBLIC "-//W3C//DTD SVG 1.1//EN" "http://www.w3.org/Graphics/SVG/1.1/DTD/svg11.dtd">
<svg version="1.1" id="Layer_1" xmlns="http://www.w3.org/2000/svg" xmlns:xlink="http://www.w3.org/1999/xlink" x="0px" y="0px"
	 width="612px" height="792px" viewBox="0 0 612 792" enable-background="new 0 0 612 792" xml:space="preserve">
<path fill="#FFFFFF" d="M556.64,90H55.36C24.786,90,0,114.786,0,145.36v501.277C0,677.214,24.786,702,55.36,702h501.277
	C587.214,702,612,677.214,612,646.638V145.36C612,114.786,587.214,90,556.64,90z M189.379,618.441c0,8.897-7.213,16.11-16.111,16.11
	h-68.579c-8.898,0-16.111-7.213-16.111-16.11V330.96c0-8.898,7.213-16.111,16.111-16.111h68.579c8.898,0,16.111,7.212,16.111,16.111
	V618.441z M138.979,287.75c-35.981,0-65.151-29.169-65.151-65.15s29.169-65.151,65.151-65.151s65.151,29.169,65.151,65.151
	S174.961,287.75,138.979,287.75z M547.772,619.739c0,8.18-6.633,14.812-14.813,14.812h-73.591c-8.18,0-14.812-6.633-14.812-14.812
	V484.894c0-20.115,5.9-88.148-52.569-88.148c-45.354,0-54.553,46.566-56.4,67.464v155.53c0,8.18-6.631,14.812-14.812,14.812h-71.175
	c-8.18,0-14.813-6.633-14.813-14.812V329.662c0-8.18,6.633-14.813,14.813-14.813h71.175c8.18,0,14.812,6.633,14.812,14.813v25.081
	c16.817-25.238,41.81-44.717,95.023-44.717c117.837,0,117.163,110.09,117.163,170.578V619.739L547.772,619.739z"/>
</svg>
