<svg xmlns="http://www.w3.org/2000/svg" xmlns:xlink="http://www.w3.org/1999/xlink" width="78.571" height="79.799" viewBox="0 0 78.571 79.799">
  <defs>
    <clipPath id="clip-path">
      <rect id="Rectangle_58" data-name="Rectangle 58" width="78.571" height="79.799" transform="translate(271 542)" fill="#fff" stroke="#fff" stroke-width="1"/>
    </clipPath>
  </defs>
  <g id="Mask_Group_5" data-name="Mask Group 5" transform="translate(-271 -542)" opacity="0.378" clip-path="url(#clip-path)">
    <g id="musicml" transform="translate(273.396 542.598)">
      <g id="Group_19" data-name="Group 19" transform="translate(0 5.933)">
        <g id="Group_18" data-name="Group 18">
          <g id="Group_17" data-name="Group 17">
            <path id="Path_44" data-name="Path 44" d="M14.736,20.941a1.186,1.186,0,1,0-2.372,0A10.053,10.053,0,0,0,21.1,30.894a5.147,5.147,0,0,1-5.019,4.04,1.186,1.186,0,1,0,0,2.372,7.522,7.522,0,0,0,7.426-6.386,9.953,9.953,0,0,0,6.071-2.953,1.186,1.186,0,0,0-1.694-1.66,7.668,7.668,0,0,1-13.146-5.366Z" transform="translate(-0.979 4.279)" fill="#fff"/>
            <path id="Path_45" data-name="Path 45" d="M24.934,36.241a10.052,10.052,0,0,0-10.04,10.04c0,.057,0,.115,0,.172a10.051,10.051,0,0,0-1.347-.093,1.186,1.186,0,1,0,0,2.372A7.677,7.677,0,0,1,21.218,56.4a1.186,1.186,0,0,0,2.372,0,10.055,10.055,0,0,0-6.282-9.308,7.814,7.814,0,0,1-.042-.812,7.677,7.677,0,0,1,7.668-7.668,1.186,1.186,0,0,0,0-2.372Z" transform="translate(-0.979 8.032)" fill="#fff"/>
            <path id="Path_46" data-name="Path 46" d="M28.849,17.765h0Z" transform="translate(2.774 3.825)" fill="#fff" stroke="#fff" stroke-miterlimit="10" stroke-width="0.097"/>
            <path id="Path_47" data-name="Path 47" d="M30.84.179c-3.741,0-8.617,2.116-13.075,5.667a7.517,7.517,0,0,0-4.018,9.7A10.056,10.056,0,0,0,5.621,25.4a9.954,9.954,0,0,0,.455,2.979A10.024,10.024,0,0,0,4.864,41.206a9.936,9.936,0,0,0-1.773,5.7,10.051,10.051,0,0,0,5.141,8.759,11.3,11.3,0,0,0,7.791,12.122,11.3,11.3,0,0,0,19.877-.67V2.769A6.239,6.239,0,0,0,30.84.179Zm0,20.239a1.186,1.186,0,0,0,0,2.372,3.878,3.878,0,0,1,3.874,3.874v28.5a11.288,11.288,0,0,0-6-3.995,1.186,1.186,0,0,0-.615,2.29A8.929,8.929,0,1,1,17.873,66.231a1.186,1.186,0,0,0-.741-.593A8.931,8.931,0,0,1,10.7,55.228a1.186,1.186,0,0,0-.68-1.32A7.677,7.677,0,0,1,5.462,46.9,7.593,7.593,0,0,1,6.5,43.048a10,10,0,0,0,6.631,2.511,1.186,1.186,0,0,0,0-2.372A7.666,7.666,0,0,1,8.218,29.633a1.186,1.186,0,0,0,.338-1.356A7.667,7.667,0,1,1,23.329,25.4a1.186,1.186,0,0,0,2.372,0,10.052,10.052,0,0,0-9.4-10.017,5.14,5.14,0,0,1,2.387-7.353,1.174,1.174,0,0,0,.207-.083,5.137,5.137,0,0,1,6.446,2.563A1.186,1.186,0,0,0,27.48,9.472a7.566,7.566,0,0,0-5.025-4.026,17.212,17.212,0,0,1,8.386-2.9,3.878,3.878,0,0,1,3.874,3.874V21.77h0A6.212,6.212,0,0,0,30.84,20.417Z" transform="translate(-3.091 -0.179)" fill="#fff" stroke="#fff" stroke-miterlimit="10" stroke-width="0.097"/>
          </g>
        </g>
      </g>
      <path id="Path_48" data-name="Path 48" d="M29.815,0" transform="translate(2.994 5.714)" fill="none" stroke="#fff" stroke-miterlimit="10" stroke-width="0.097"/>
      <line id="Line_22" data-name="Line 22" x2="22.937" transform="translate(32.301 43.015)" fill="none" stroke="#fff" stroke-miterlimit="10" stroke-width="0.974"/>
      <line id="Line_23" data-name="Line 23" y2="64.038" transform="translate(32.301 8.763)" fill="none" stroke="#fff" stroke-miterlimit="10" stroke-width="1.072"/>
      <line id="Line_24" data-name="Line 24" y1="17.935" transform="translate(61.861)" fill="none" stroke="#fff" stroke-miterlimit="10" stroke-width="0.974"/>
      <line id="Line_25" data-name="Line 25" x2="13.726" transform="translate(32.301 28.96)" fill="#231f20" stroke="#fff" stroke-miterlimit="10" stroke-width="0.974"/>
      <line id="Line_26" data-name="Line 26" y1="12.201" transform="translate(46.027 16.759)" fill="none" stroke="#fff" stroke-miterlimit="10" stroke-width="0.974"/>
      <line id="Line_27" data-name="Line 27" x2="9.809" transform="translate(46.027 16.759)" fill="none" stroke="#fff" stroke-miterlimit="10" stroke-width="0.974"/>
      <path id="Path_49" data-name="Path 49" d="M40.139,8.946a.462.462,0,1,1,.455.381A.423.423,0,0,1,40.139,8.946Z" transform="translate(5.344 7.664)" fill="#fff" stroke="#fff" stroke-miterlimit="10" stroke-width="0.097"/>
      <path id="Path_50" data-name="Path 50" d="M40.309,19.125a.457.457,0,1,1,.455.415A.436.436,0,0,1,40.309,19.125Z" transform="translate(5.383 9.974)" fill="#fff" stroke="#fff" stroke-miterlimit="10" stroke-width="0.097"/>
      <ellipse id="Ellipse_12" data-name="Ellipse 12" cx="3.327" cy="3.376" rx="3.327" ry="3.376" transform="translate(55.207 13.588)" fill="none" stroke="#fff" stroke-miterlimit="10" stroke-width="0.974"/>
      <line id="Line_28" data-name="Line 28" x2="12.524" transform="translate(61.263)" fill="none" stroke="#fff" stroke-miterlimit="10" stroke-width="0.974"/>
      <line id="Line_29" data-name="Line 29" y1="14.212" transform="translate(73.181 0.439)" fill="none" stroke="#fff" stroke-miterlimit="10" stroke-width="0.974"/>
      <ellipse id="Ellipse_13" data-name="Ellipse 13" cx="3.327" cy="3.376" rx="3.327" ry="3.376" transform="translate(66.527 11.183)" fill="none" stroke="#fff" stroke-miterlimit="10" stroke-width="1.072"/>
      <line id="Line_30" data-name="Line 30" y1="16.492" transform="translate(61.861 26.819)" fill="none" stroke="#fff" stroke-miterlimit="10" stroke-width="0.974"/>
      <line id="Line_31" data-name="Line 31" x1="13.726" transform="translate(42.783 58.161)" fill="none" stroke="#fff" stroke-miterlimit="10" stroke-width="0.974"/>
      <line id="Line_32" data-name="Line 32" y2="12.201" transform="translate(42.783 58.161)" fill="none" stroke="#fff" stroke-miterlimit="10" stroke-width="0.974"/>
      <line id="Line_33" data-name="Line 33" x1="9.809" transform="translate(32.974 70.363)" fill="none" stroke="#fff" stroke-miterlimit="10" stroke-width="0.974"/>
      <path id="Path_51" data-name="Path 51" d="M38.552,52.852a.462.462,0,1,1-.455-.381A.423.423,0,0,1,38.552,52.852Z" transform="translate(4.776 17.66)" fill="#fff" stroke="#fff" stroke-miterlimit="10" stroke-width="0.097"/>
      <path id="Path_52" data-name="Path 52" d="M38.381,42.685a.457.457,0,1,1-.455-.414A.436.436,0,0,1,38.381,42.685Z" transform="translate(4.737 15.338)" fill="#fff" stroke="#fff" stroke-miterlimit="10" stroke-width="0.097"/>
      <ellipse id="Ellipse_14" data-name="Ellipse 14" cx="3.327" cy="3.376" rx="3.327" ry="3.376" transform="translate(55.978 54.785)" fill="none" stroke="#fff" stroke-miterlimit="10" stroke-width="0.974"/>
      <ellipse id="Ellipse_15" data-name="Ellipse 15" cx="3.327" cy="3.376" rx="3.327" ry="3.376" transform="translate(55.207 39.64)" fill="none" stroke="#fff" stroke-miterlimit="10" stroke-width="0.974"/>
    </g>
  </g>
</svg>
